<mxfile host="Electron" agent="Mozilla/5.0 (Windows NT 10.0; Win64; x64) AppleWebKit/537.36 (KHTML, like Gecko) draw.io/28.0.6 Chrome/138.0.7204.100 Electron/37.2.3 Safari/537.36" version="28.0.6">
  <diagram name="Page-1" id="p4cVl2KoE-AoN8D7DvPU">
    <mxGraphModel dx="1892" dy="1726" grid="1" gridSize="10" guides="1" tooltips="1" connect="1" arrows="1" fold="1" page="1" pageScale="1" pageWidth="850" pageHeight="1100" math="0" shadow="0">
      <root>
        <mxCell id="0" />
        <mxCell id="1" parent="0" />
        <mxCell id="3lA7HQ7cckT1QiHHWbMs-3" value="" style="edgeStyle=orthogonalEdgeStyle;rounded=0;orthogonalLoop=1;jettySize=auto;html=1;" edge="1" parent="1" source="3lA7HQ7cckT1QiHHWbMs-1" target="3lA7HQ7cckT1QiHHWbMs-2">
          <mxGeometry relative="1" as="geometry" />
        </mxCell>
        <mxCell id="3lA7HQ7cckT1QiHHWbMs-1" value="start" style="ellipse;whiteSpace=wrap;html=1;" vertex="1" parent="1">
          <mxGeometry x="80" y="-1070" width="120" height="60" as="geometry" />
        </mxCell>
        <mxCell id="3lA7HQ7cckT1QiHHWbMs-5" value="" style="edgeStyle=orthogonalEdgeStyle;rounded=0;orthogonalLoop=1;jettySize=auto;html=1;" edge="1" parent="1" source="3lA7HQ7cckT1QiHHWbMs-2" target="3lA7HQ7cckT1QiHHWbMs-4">
          <mxGeometry relative="1" as="geometry" />
        </mxCell>
        <mxCell id="3lA7HQ7cckT1QiHHWbMs-2" value="Add New Customer" style="whiteSpace=wrap;html=1;" vertex="1" parent="1">
          <mxGeometry x="80" y="-950" width="120" height="60" as="geometry" />
        </mxCell>
        <mxCell id="3lA7HQ7cckT1QiHHWbMs-7" value="yes" style="edgeStyle=orthogonalEdgeStyle;rounded=0;orthogonalLoop=1;jettySize=auto;html=1;" edge="1" parent="1" source="3lA7HQ7cckT1QiHHWbMs-4" target="3lA7HQ7cckT1QiHHWbMs-6">
          <mxGeometry relative="1" as="geometry" />
        </mxCell>
        <mxCell id="3lA7HQ7cckT1QiHHWbMs-15" value="no" style="edgeStyle=orthogonalEdgeStyle;rounded=0;orthogonalLoop=1;jettySize=auto;html=1;entryX=0.5;entryY=0;entryDx=0;entryDy=0;" edge="1" parent="1" source="3lA7HQ7cckT1QiHHWbMs-4" target="3lA7HQ7cckT1QiHHWbMs-8">
          <mxGeometry relative="1" as="geometry" />
        </mxCell>
        <mxCell id="3lA7HQ7cckT1QiHHWbMs-4" value="Error Check" style="rhombus;whiteSpace=wrap;html=1;" vertex="1" parent="1">
          <mxGeometry x="80" y="-840" width="120" height="80" as="geometry" />
        </mxCell>
        <mxCell id="3lA7HQ7cckT1QiHHWbMs-13" value="" style="edgeStyle=orthogonalEdgeStyle;rounded=0;orthogonalLoop=1;jettySize=auto;html=1;" edge="1" parent="1" source="3lA7HQ7cckT1QiHHWbMs-6" target="3lA7HQ7cckT1QiHHWbMs-12">
          <mxGeometry relative="1" as="geometry" />
        </mxCell>
        <mxCell id="3lA7HQ7cckT1QiHHWbMs-6" value="Invalid Input" style="whiteSpace=wrap;html=1;direction=west;" vertex="1" parent="1">
          <mxGeometry x="-120" y="-830" width="120" height="60" as="geometry" />
        </mxCell>
        <mxCell id="3lA7HQ7cckT1QiHHWbMs-17" value="" style="edgeStyle=orthogonalEdgeStyle;rounded=0;orthogonalLoop=1;jettySize=auto;html=1;" edge="1" parent="1" source="3lA7HQ7cckT1QiHHWbMs-8" target="3lA7HQ7cckT1QiHHWbMs-16">
          <mxGeometry relative="1" as="geometry" />
        </mxCell>
        <mxCell id="3lA7HQ7cckT1QiHHWbMs-8" value="Store In Dictionary" style="whiteSpace=wrap;html=1;" vertex="1" parent="1">
          <mxGeometry x="80" y="-710" width="120" height="60" as="geometry" />
        </mxCell>
        <mxCell id="3lA7HQ7cckT1QiHHWbMs-14" style="edgeStyle=orthogonalEdgeStyle;rounded=0;orthogonalLoop=1;jettySize=auto;html=1;entryX=0;entryY=0.5;entryDx=0;entryDy=0;" edge="1" parent="1" source="3lA7HQ7cckT1QiHHWbMs-12" target="3lA7HQ7cckT1QiHHWbMs-2">
          <mxGeometry relative="1" as="geometry" />
        </mxCell>
        <mxCell id="3lA7HQ7cckT1QiHHWbMs-12" value="Handle Error" style="whiteSpace=wrap;html=1;direction=west;" vertex="1" parent="1">
          <mxGeometry x="-120" y="-950" width="120" height="60" as="geometry" />
        </mxCell>
        <mxCell id="3lA7HQ7cckT1QiHHWbMs-19" value="" style="edgeStyle=orthogonalEdgeStyle;rounded=0;orthogonalLoop=1;jettySize=auto;html=1;" edge="1" parent="1" source="3lA7HQ7cckT1QiHHWbMs-16" target="3lA7HQ7cckT1QiHHWbMs-18">
          <mxGeometry relative="1" as="geometry" />
        </mxCell>
        <mxCell id="3lA7HQ7cckT1QiHHWbMs-16" value="Calculate Discount" style="whiteSpace=wrap;html=1;" vertex="1" parent="1">
          <mxGeometry x="80" y="-590" width="120" height="60" as="geometry" />
        </mxCell>
        <mxCell id="3lA7HQ7cckT1QiHHWbMs-21" value="yes" style="edgeStyle=orthogonalEdgeStyle;rounded=0;orthogonalLoop=1;jettySize=auto;html=1;" edge="1" parent="1" source="3lA7HQ7cckT1QiHHWbMs-18" target="3lA7HQ7cckT1QiHHWbMs-20">
          <mxGeometry relative="1" as="geometry" />
        </mxCell>
        <mxCell id="3lA7HQ7cckT1QiHHWbMs-27" value="no" style="edgeStyle=orthogonalEdgeStyle;rounded=0;orthogonalLoop=1;jettySize=auto;html=1;" edge="1" parent="1" source="3lA7HQ7cckT1QiHHWbMs-18" target="3lA7HQ7cckT1QiHHWbMs-26">
          <mxGeometry relative="1" as="geometry" />
        </mxCell>
        <mxCell id="3lA7HQ7cckT1QiHHWbMs-18" value="Error Check" style="rhombus;whiteSpace=wrap;html=1;" vertex="1" parent="1">
          <mxGeometry x="80" y="-480" width="120" height="80" as="geometry" />
        </mxCell>
        <mxCell id="3lA7HQ7cckT1QiHHWbMs-24" value="" style="edgeStyle=orthogonalEdgeStyle;rounded=0;orthogonalLoop=1;jettySize=auto;html=1;" edge="1" parent="1" source="3lA7HQ7cckT1QiHHWbMs-20" target="3lA7HQ7cckT1QiHHWbMs-23">
          <mxGeometry relative="1" as="geometry" />
        </mxCell>
        <mxCell id="3lA7HQ7cckT1QiHHWbMs-20" value="Invalid Discount" style="whiteSpace=wrap;html=1;" vertex="1" parent="1">
          <mxGeometry x="-120" y="-470" width="120" height="60" as="geometry" />
        </mxCell>
        <mxCell id="3lA7HQ7cckT1QiHHWbMs-22" style="edgeStyle=orthogonalEdgeStyle;rounded=0;orthogonalLoop=1;jettySize=auto;html=1;exitX=0.5;exitY=1;exitDx=0;exitDy=0;" edge="1" parent="1" source="3lA7HQ7cckT1QiHHWbMs-8" target="3lA7HQ7cckT1QiHHWbMs-8">
          <mxGeometry relative="1" as="geometry" />
        </mxCell>
        <mxCell id="3lA7HQ7cckT1QiHHWbMs-25" style="edgeStyle=orthogonalEdgeStyle;rounded=0;orthogonalLoop=1;jettySize=auto;html=1;entryX=0;entryY=0.5;entryDx=0;entryDy=0;" edge="1" parent="1" source="3lA7HQ7cckT1QiHHWbMs-23" target="3lA7HQ7cckT1QiHHWbMs-16">
          <mxGeometry relative="1" as="geometry" />
        </mxCell>
        <mxCell id="3lA7HQ7cckT1QiHHWbMs-23" value="Handle Error" style="whiteSpace=wrap;html=1;" vertex="1" parent="1">
          <mxGeometry x="-120" y="-590" width="120" height="60" as="geometry" />
        </mxCell>
        <mxCell id="3lA7HQ7cckT1QiHHWbMs-31" value="" style="edgeStyle=orthogonalEdgeStyle;rounded=0;orthogonalLoop=1;jettySize=auto;html=1;" edge="1" parent="1" source="3lA7HQ7cckT1QiHHWbMs-26" target="3lA7HQ7cckT1QiHHWbMs-30">
          <mxGeometry relative="1" as="geometry" />
        </mxCell>
        <mxCell id="3lA7HQ7cckT1QiHHWbMs-26" value="Identify Eligible Coupons" style="whiteSpace=wrap;html=1;" vertex="1" parent="1">
          <mxGeometry x="80" y="-350" width="120" height="60" as="geometry" />
        </mxCell>
        <mxCell id="3lA7HQ7cckT1QiHHWbMs-28" style="edgeStyle=orthogonalEdgeStyle;rounded=0;orthogonalLoop=1;jettySize=auto;html=1;exitX=0.5;exitY=1;exitDx=0;exitDy=0;" edge="1" parent="1" source="3lA7HQ7cckT1QiHHWbMs-20" target="3lA7HQ7cckT1QiHHWbMs-20">
          <mxGeometry relative="1" as="geometry" />
        </mxCell>
        <mxCell id="3lA7HQ7cckT1QiHHWbMs-34" value="yes" style="edgeStyle=orthogonalEdgeStyle;rounded=0;orthogonalLoop=1;jettySize=auto;html=1;" edge="1" parent="1" source="3lA7HQ7cckT1QiHHWbMs-30" target="3lA7HQ7cckT1QiHHWbMs-33">
          <mxGeometry relative="1" as="geometry" />
        </mxCell>
        <mxCell id="3lA7HQ7cckT1QiHHWbMs-40" value="no" style="edgeStyle=orthogonalEdgeStyle;rounded=0;orthogonalLoop=1;jettySize=auto;html=1;" edge="1" parent="1" source="3lA7HQ7cckT1QiHHWbMs-30" target="3lA7HQ7cckT1QiHHWbMs-39">
          <mxGeometry relative="1" as="geometry" />
        </mxCell>
        <mxCell id="3lA7HQ7cckT1QiHHWbMs-30" value="Error Check" style="rhombus;whiteSpace=wrap;html=1;" vertex="1" parent="1">
          <mxGeometry x="80" y="-240" width="120" height="80" as="geometry" />
        </mxCell>
        <mxCell id="3lA7HQ7cckT1QiHHWbMs-36" value="" style="edgeStyle=orthogonalEdgeStyle;rounded=0;orthogonalLoop=1;jettySize=auto;html=1;" edge="1" parent="1" source="3lA7HQ7cckT1QiHHWbMs-33" target="3lA7HQ7cckT1QiHHWbMs-35">
          <mxGeometry relative="1" as="geometry" />
        </mxCell>
        <mxCell id="3lA7HQ7cckT1QiHHWbMs-33" value="Invalid Coupons" style="whiteSpace=wrap;html=1;" vertex="1" parent="1">
          <mxGeometry x="-120" y="-230" width="120" height="60" as="geometry" />
        </mxCell>
        <mxCell id="3lA7HQ7cckT1QiHHWbMs-37" style="edgeStyle=orthogonalEdgeStyle;rounded=0;orthogonalLoop=1;jettySize=auto;html=1;entryX=0;entryY=0.5;entryDx=0;entryDy=0;" edge="1" parent="1" source="3lA7HQ7cckT1QiHHWbMs-35" target="3lA7HQ7cckT1QiHHWbMs-26">
          <mxGeometry relative="1" as="geometry" />
        </mxCell>
        <mxCell id="3lA7HQ7cckT1QiHHWbMs-35" value="Handle Error" style="whiteSpace=wrap;html=1;" vertex="1" parent="1">
          <mxGeometry x="-120" y="-350" width="120" height="60" as="geometry" />
        </mxCell>
        <mxCell id="3lA7HQ7cckT1QiHHWbMs-39" value="" style="ellipse;whiteSpace=wrap;html=1;" vertex="1" parent="1">
          <mxGeometry x="100" y="-120" width="80" height="80" as="geometry" />
        </mxCell>
        <mxCell id="3lA7HQ7cckT1QiHHWbMs-43" style="edgeStyle=orthogonalEdgeStyle;rounded=0;orthogonalLoop=1;jettySize=auto;html=1;entryX=0.5;entryY=0;entryDx=0;entryDy=0;" edge="1" parent="1" source="3lA7HQ7cckT1QiHHWbMs-41" target="3lA7HQ7cckT1QiHHWbMs-42">
          <mxGeometry relative="1" as="geometry" />
        </mxCell>
        <mxCell id="3lA7HQ7cckT1QiHHWbMs-41" value="" style="ellipse;whiteSpace=wrap;html=1;aspect=fixed;" vertex="1" parent="1">
          <mxGeometry x="540" y="-1080" width="80" height="80" as="geometry" />
        </mxCell>
        <mxCell id="3lA7HQ7cckT1QiHHWbMs-45" value="" style="edgeStyle=orthogonalEdgeStyle;rounded=0;orthogonalLoop=1;jettySize=auto;html=1;" edge="1" parent="1" source="3lA7HQ7cckT1QiHHWbMs-42" target="3lA7HQ7cckT1QiHHWbMs-44">
          <mxGeometry relative="1" as="geometry" />
        </mxCell>
        <mxCell id="3lA7HQ7cckT1QiHHWbMs-42" value="Update Custemer Profile:&amp;nbsp;&lt;div&gt;Update Discounts, Coupons, Bonuses&lt;/div&gt;" style="rounded=0;whiteSpace=wrap;html=1;" vertex="1" parent="1">
          <mxGeometry x="520" y="-950" width="120" height="60" as="geometry" />
        </mxCell>
        <mxCell id="3lA7HQ7cckT1QiHHWbMs-49" value="" style="edgeStyle=orthogonalEdgeStyle;rounded=0;orthogonalLoop=1;jettySize=auto;html=1;" edge="1" parent="1" source="3lA7HQ7cckT1QiHHWbMs-44" target="3lA7HQ7cckT1QiHHWbMs-48">
          <mxGeometry relative="1" as="geometry" />
        </mxCell>
        <mxCell id="3lA7HQ7cckT1QiHHWbMs-44" value="Display Results to user" style="shape=parallelogram;perimeter=parallelogramPerimeter;whiteSpace=wrap;html=1;fixedSize=1;rounded=0;" vertex="1" parent="1">
          <mxGeometry x="520" y="-830" width="120" height="60" as="geometry" />
        </mxCell>
        <mxCell id="3lA7HQ7cckT1QiHHWbMs-46" value="End" style="ellipse;whiteSpace=wrap;html=1;" vertex="1" parent="1">
          <mxGeometry x="520" y="-590" width="120" height="60" as="geometry" />
        </mxCell>
        <mxCell id="3lA7HQ7cckT1QiHHWbMs-50" style="edgeStyle=orthogonalEdgeStyle;rounded=0;orthogonalLoop=1;jettySize=auto;html=1;entryX=0.5;entryY=0;entryDx=0;entryDy=0;" edge="1" parent="1" source="3lA7HQ7cckT1QiHHWbMs-48" target="3lA7HQ7cckT1QiHHWbMs-46">
          <mxGeometry relative="1" as="geometry" />
        </mxCell>
        <mxCell id="3lA7HQ7cckT1QiHHWbMs-48" value="Run Test Cases" style="whiteSpace=wrap;html=1;rounded=0;" vertex="1" parent="1">
          <mxGeometry x="520" y="-710" width="120" height="60" as="geometry" />
        </mxCell>
      </root>
    </mxGraphModel>
  </diagram>
</mxfile>
